<?xml version="1.0" encoding="utf-8"?><svg xmlns="http://www.w3.org/2000/svg" xmlns:xlink="http://www.w3.org/1999/xlink"><symbol viewBox="0 0 36 35" id="agreement" xmlns="http://www.w3.org/2000/svg">
    <path d="M29.6665 5.83329V23.3333H12.1665V5.83329H29.6665ZM29.6665 2.91663H12.1665C10.5623 2.91663 9.24984 4.22913 9.24984 5.83329V23.3333C9.24984 24.9375 10.5623 26.25 12.1665 26.25H29.6665C31.2707 26.25 32.5832 24.9375 32.5832 23.3333V5.83329C32.5832 4.22913 31.2707 2.91663 29.6665 2.91663ZM18.6853 20.4166L13.6248 15.3125L15.6665 13.2562L18.6853 16.2895L26.1665 8.74996L28.2082 10.8062L18.6853 20.4166ZM6.33317 8.74996H3.4165V29.1666C3.4165 30.7708 4.729 32.0833 6.33317 32.0833H26.7498V29.1666H6.33317V8.74996Z"/>
</symbol><symbol viewBox="0 0 71 30" id="icon-arrow" xmlns="http://www.w3.org/2000/svg">
    <path d="M14.3055 23.8334L5.97217 15.5L14.3055 7.16669L15.7847 8.64585L8.9305 15.5L15.7847 22.3542L14.3055 23.8334Z"/>
    <line x1="28.0734" y1="29.4424" x2="42.1012" y2="0.680956" stroke-width="2"/>
    <path d="M57.6874 23.8334L56.2083 22.3542L63.0624 15.5L56.2083 8.64585L57.6874 7.16669L66.0208 15.5L57.6874 23.8334Z"/>
</symbol><symbol viewBox="0 0 28 40" id="icon-nav-slider" xmlns="http://www.w3.org/2000/svg">
    <rect width="4" height="40"/>
    <rect x="12" y="16" width="4" height="24"/>
    <rect x="24" y="16" width="4" height="24"/>
</symbol><symbol viewBox="0 0 20 20" id="mail" xmlns="http://www.w3.org/2000/svg">
    <path d="M3.33317 16.6666C2.87484 16.6666 2.48234 16.5033 2.15567 16.1766C1.82901 15.8499 1.66595 15.4577 1.66651 14.9999V4.99992C1.66651 4.54159 1.82984 4.14909 2.15651 3.82242C2.48317 3.49575 2.87539 3.3327 3.33317 3.33325H16.6665C17.1248 3.33325 17.5173 3.49659 17.844 3.82325C18.1707 4.14992 18.3337 4.54214 18.3332 4.99992V14.9999C18.3332 15.4583 18.1698 15.8508 17.8432 16.1774C17.5165 16.5041 17.1243 16.6671 16.6665 16.6666H3.33317ZM9.99984 10.8333L3.33317 6.66659V14.9999H16.6665V6.66659L9.99984 10.8333ZM9.99984 9.16659L16.6665 4.99992H3.33317L9.99984 9.16659ZM3.33317 6.66659V4.99992V14.9999V6.66659Z"/>
</symbol><symbol viewBox="0 0 32 32" id="map" xmlns="http://www.w3.org/2000/svg">
    <path d="M15.9998 8.66675C16.8839 8.66675 17.7317 9.01794 18.3569 9.64306C18.982 10.2682 19.3332 11.116 19.3332 12.0001C19.3332 12.4378 19.247 12.8713 19.0794 13.2757C18.9119 13.6801 18.6664 14.0476 18.3569 14.3571C18.0473 14.6666 17.6799 14.9122 17.2754 15.0797C16.871 15.2472 16.4376 15.3334 15.9998 15.3334C15.1158 15.3334 14.2679 14.9822 13.6428 14.3571C13.0177 13.732 12.6665 12.8841 12.6665 12.0001C12.6665 11.116 13.0177 10.2682 13.6428 9.64306C14.2679 9.01794 15.1158 8.66675 15.9998 8.66675ZM15.9998 2.66675C18.4752 2.66675 20.8492 3.65008 22.5995 5.40042C24.3498 7.15076 25.3332 9.52473 25.3332 12.0001C25.3332 19.0001 15.9998 29.3334 15.9998 29.3334C15.9998 29.3334 6.6665 19.0001 6.6665 12.0001C6.6665 9.52473 7.64983 7.15076 9.40017 5.40042C11.1505 3.65008 13.5245 2.66675 15.9998 2.66675ZM15.9998 5.33341C14.2317 5.33341 12.536 6.03579 11.2858 7.28604C10.0355 8.53628 9.33317 10.232 9.33317 12.0001C9.33317 13.3334 9.33317 16.0001 15.9998 24.9467C22.6665 16.0001 22.6665 13.3334 22.6665 12.0001C22.6665 10.232 21.9641 8.53628 20.7139 7.28604C19.4636 6.03579 17.7679 5.33341 15.9998 5.33341Z"/>
</symbol><symbol viewBox="0 0 22 20" id="materials-show" xmlns="http://www.w3.org/2000/svg">
    <path d="M20.6098 9.7875C19.8533 7.88603 18.5399 6.24164 16.8321 5.05755C15.1243 3.87347 13.0968 3.20161 11.0003 3.125C8.90381 3.20161 6.87635 3.87347 5.16852 5.05755C3.4607 6.24164 2.14737 7.88603 1.39086 9.7875C1.33977 9.92482 1.33977 10.0752 1.39086 10.2125C2.14737 12.114 3.4607 13.7584 5.16852 14.9424C6.87635 16.1265 8.90381 16.7984 11.0003 16.875C13.0968 16.7984 15.1243 16.1265 16.8321 14.9424C18.5399 13.7584 19.8533 12.114 20.6098 10.2125C20.6609 10.0752 20.6609 9.92482 20.6098 9.7875ZM11.0003 15.625C7.59134 15.625 3.9894 13.1687 2.6837 10C3.9894 6.83125 7.59134 4.375 11.0003 4.375C14.4093 4.375 18.0112 6.83125 19.3169 10C18.0112 13.1687 14.4093 15.625 11.0003 15.625Z"/>
    <path d="M11.0003 6.25C10.2371 6.25 9.49091 6.46993 8.85627 6.88199C8.22162 7.29404 7.72698 7.87971 7.43488 8.56494C7.14279 9.25016 7.06636 10.0042 7.21527 10.7316C7.36418 11.459 7.73173 12.1272 8.27146 12.6517C8.81118 13.1761 9.49883 13.5333 10.2474 13.6779C10.9961 13.8226 11.772 13.7484 12.4772 13.4645C13.1824 13.1807 13.7851 12.7001 14.2092 12.0834C14.6332 11.4667 14.8596 10.7417 14.8596 10C14.8596 9.00544 14.453 8.05161 13.7292 7.34835C13.0055 6.64509 12.0239 6.25 11.0003 6.25ZM11.0003 12.5C10.4915 12.5 9.99406 12.3534 9.57096 12.0787C9.14786 11.804 8.8181 11.4135 8.62337 10.9567C8.42864 10.4999 8.37769 9.99723 8.47696 9.51227C8.57623 9.02732 8.82127 8.58186 9.18108 8.23223C9.5409 7.8826 9.99933 7.6445 10.4984 7.54804C10.9975 7.45157 11.5148 7.50108 11.9849 7.6903C12.455 7.87952 12.8569 8.19995 13.1396 8.61107C13.4223 9.0222 13.5732 9.50555 13.5732 10C13.5732 10.663 13.3021 11.2989 12.8196 11.7678C12.3371 12.2366 11.6827 12.5 11.0003 12.5Z"/>
</symbol><symbol viewBox="0 0 20 20" id="phone" xmlns="http://www.w3.org/2000/svg">
    <path d="M13.3332 0.833252H6.6665C5.28317 0.833252 4.1665 1.94992 4.1665 3.33325V16.6666C4.1665 18.0499 5.28317 19.1666 6.6665 19.1666H13.3332C14.7165 19.1666 15.8332 18.0499 15.8332 16.6666V3.33325C15.8332 1.94992 14.7165 0.833252 13.3332 0.833252ZM14.1665 14.9999H5.83317V3.33325H14.1665V14.9999ZM11.6665 17.4999H8.33317V16.6666H11.6665V17.4999Z"/>
</symbol></svg>