<?xml version="1.0" encoding="utf-8"?><svg viewBox="0 0 71 40" xmlns="http://www.w3.org/2000/svg" xmlns:xlink="http://www.w3.org/1999/xlink"><style>:root>svg{display:none}:root>svg:target{display:block}</style><svg fill="none" viewBox="0 0 36 35" id="agreement" xmlns="http://www.w3.org/2000/svg">
    <path d="M29.666 5.833v17.5h-17.5v-17.5h17.5Zm0-2.916h-17.5A2.925 2.925 0 0 0 9.25 5.833v17.5a2.925 2.925 0 0 0 2.916 2.917h17.5a2.925 2.925 0 0 0 2.917-2.917v-17.5a2.925 2.925 0 0 0-2.916-2.916Zm-10.98 17.5-5.061-5.105 2.041-2.056 3.02 3.034 7.48-7.54 2.042 2.056-9.523 9.61ZM6.332 8.75H3.416v20.417a2.925 2.925 0 0 0 2.917 2.916H26.75v-2.916H6.333V8.75Z" fill="#4F8FF0"/>
</svg><svg fill="none" viewBox="0 0 71 30" id="icon-arrow" xmlns="http://www.w3.org/2000/svg">
    <path d="M14.306 23.833 5.972 15.5l8.334-8.333 1.479 1.479L8.93 15.5l6.854 6.854-1.48 1.48Z" fill="#4F8FF0"/>
    <path stroke="#4F8FF0" stroke-width="2" d="M28.073 29.442 42.101.681"/>
    <path d="m57.687 23.833-1.479-1.479 6.854-6.854-6.854-6.854 1.48-1.48L66.02 15.5l-8.334 8.333Z" fill="#4F8FF0"/>
</svg><svg fill="none" viewBox="0 0 28 40" id="icon-nav-slider" xmlns="http://www.w3.org/2000/svg">
    <path fill="#4F8FF0" d="M0 0h4v40H0z"/>
    <path fill="#E6E6E6" d="M12 16h4v24h-4zM24 16h4v24h-4z"/>
</svg><svg fill="none" viewBox="0 0 20 20" id="mail" xmlns="http://www.w3.org/2000/svg">
    <path d="M3.333 16.667c-.458 0-.85-.164-1.177-.49A1.602 1.602 0 0 1 1.666 15V5c0-.458.164-.85.49-1.178.327-.326.72-.49 1.177-.489h13.334c.458 0 .85.164 1.177.49.327.327.49.72.49 1.177v10c0 .458-.164.85-.49 1.177-.328.327-.72.49-1.178.49H3.333ZM10 10.833 3.333 6.667V15h13.334V6.667L10 10.833Zm0-1.666L16.666 5H3.333L10 9.167Zm-6.667-2.5V5v10-8.333Z" fill="#4F8FF0"/>
</svg><svg fill="none" viewBox="0 0 32 32" id="map" xmlns="http://www.w3.org/2000/svg">
    <path d="M16 8.667a3.334 3.334 0 1 1 0 6.667 3.334 3.334 0 0 1 0-6.667Zm0-6A9.333 9.333 0 0 1 25.333 12c0 7-9.333 17.333-9.333 17.333S6.666 19 6.666 12A9.333 9.333 0 0 1 16 2.667Zm0 2.666A6.666 6.666 0 0 0 9.333 12c0 1.333 0 4 6.667 12.947C22.666 16 22.666 13.333 22.666 12A6.667 6.667 0 0 0 16 5.333Z" fill="#F8F5F4"/>
</svg><svg fill="none" viewBox="0 0 22 20" id="materials-show" xmlns="http://www.w3.org/2000/svg">
    <path d="M20.61 9.787a10.479 10.479 0 0 0-3.778-4.73A10.941 10.941 0 0 0 11 3.126 10.941 10.941 0 0 0 5.17 5.058a10.479 10.479 0 0 0-3.778 4.73.608.608 0 0 0 0 .425 10.478 10.478 0 0 0 3.778 4.73A10.941 10.941 0 0 0 11 16.874a10.941 10.941 0 0 0 5.832-1.933 10.478 10.478 0 0 0 3.778-4.73.608.608 0 0 0 0-.425ZM11 15.625c-3.409 0-7.01-2.456-8.316-5.625C3.989 6.831 7.59 4.375 11 4.375c3.41 0 7.011 2.456 8.317 5.625-1.306 3.169-4.908 5.625-8.317 5.625Z" fill="#4F8FF0"/>
    <path d="M11 6.25c-.763 0-1.51.22-2.144.632a3.775 3.775 0 0 0-1.421 1.683 3.652 3.652 0 0 0-.22 2.167 3.719 3.719 0 0 0 1.056 1.92c.54.524 1.228.881 1.976 1.026.75.145 1.525.07 2.23-.214a3.837 3.837 0 0 0 1.732-1.38c.424-.617.65-1.342.65-2.084 0-.995-.406-1.948-1.13-2.652A3.917 3.917 0 0 0 11 6.25Zm0 6.25a2.626 2.626 0 0 1-1.429-.421 2.517 2.517 0 0 1-.948-1.122 2.434 2.434 0 0 1-.146-1.445c.1-.485.344-.93.704-1.28s.818-.587 1.317-.684a2.642 2.642 0 0 1 1.487.142c.47.19.872.51 1.155.921.282.411.433.895.433 1.389 0 .663-.27 1.299-.753 1.768A2.612 2.612 0 0 1 11 12.5Z" fill="#4F8FF0"/>
</svg><svg fill="none" viewBox="0 0 20 20" id="phone" xmlns="http://www.w3.org/2000/svg">
    <path d="M13.333.833H6.666a2.497 2.497 0 0 0-2.5 2.5v13.334c0 1.383 1.117 2.5 2.5 2.5h6.667c1.383 0 2.5-1.117 2.5-2.5V3.333c0-1.383-1.117-2.5-2.5-2.5ZM14.166 15H5.833V3.333h8.333V15Zm-2.5 2.5H8.333v-.833h3.333v.833Z" fill="#4F8FF0"/>
</svg></svg>